# xmcd
#
# Track frame offsets:
# 150
# 3578
# 19672
# 37822
# 52302
# 65763
# 71478
# 94142
# 112235
# 137980
# 155599
#
# Disc length: 2481 seconds
#
#
# Revision: 0
# Processed by: cddbd v1.5.2PL0 Copyright (c) Steve Scherf et al.
# Submitted via: FreeRIP 2.941 
#
DISCID=9f09af0b
DTITLE=Mystery Jets - Making Dens
DYEAR=1900
DGENRE=
TTITLE0=Intro
TTITLE1=You Can't Fool Me Dennis
TTITLE2=Purple Prose
TTITLE3=Soluble In Air
TTITLE4=The Boy Who Ran Away
TTITLE5=Summertime Dens
TTITLE6=Horse Drawn Cart
TTITLE7=Zoo Time
TTITLE8=Little Bag Of Hair
TTITLE9=Alas Agnes
TTITLE10=Making Dens
EXTD=
EXTT0=
EXTT1=
EXTT2=
EXTT3=
EXTT4=
EXTT5=
EXTT6=
EXTT7=
EXTT8=
EXTT9=
EXTT10=
PLAYORDER=
